<svg width="55" height="35" viewBox="0 0 55 35" fill="none" xmlns="http://www.w3.org/2000/svg">
<g clip-path="url(#clip0_35_1279)">
<rect width="55" height="35" fill="#E3C0D3"/>
<rect x="9.5" y="6" width="17" height="23" rx="6" fill="#F7F2FA"/>
<path d="M15.5596 8.75V24.5H13.6626V8.75H15.5596ZM15.1084 18.5322L14.3188 18.5015C14.3257 17.7427 14.4385 17.042 14.6572 16.3994C14.876 15.75 15.1836 15.186 15.5801 14.7075C15.9766 14.229 16.4482 13.8599 16.9951 13.6001C17.5488 13.3335 18.1606 13.2002 18.8306 13.2002C19.3774 13.2002 19.8696 13.2754 20.3071 13.4258C20.7446 13.5693 21.1172 13.8018 21.4248 14.123C21.7393 14.4443 21.9785 14.8613 22.1426 15.374C22.3066 15.8799 22.3887 16.4985 22.3887 17.23V24.5H20.4814V17.2095C20.4814 16.6284 20.396 16.1636 20.2251 15.8149C20.0542 15.4595 19.8047 15.2031 19.4766 15.0459C19.1484 14.8818 18.7451 14.7998 18.2666 14.7998C17.7949 14.7998 17.3643 14.8989 16.9746 15.0972C16.5918 15.2954 16.2603 15.5688 15.98 15.9175C15.7065 16.2661 15.4912 16.666 15.334 17.1172C15.1836 17.5615 15.1084 18.0332 15.1084 18.5322Z" fill="#1D1B20"/>
<rect x="28.5" y="6" width="17" height="23" rx="6" fill="#F7F2FA"/>
<path d="M32.3333 17.5H41.6666M41.6666 17.5L37 12.8333M41.6666 17.5L37 22.1667" stroke="#1E1E1E" stroke-width="1.6" stroke-linecap="round" stroke-linejoin="round"/>
</g>
<defs>
<clipPath id="clip0_35_1279">
<rect width="55" height="35" fill="white"/>
</clipPath>
</defs>
</svg>
